<svg xmlns="http://www.w3.org/2000/svg" width="142" height="45" viewBox="0 0 142 45" fill="none">
  <path d="M30.9001 44C23.5001 44 17.2001 39 15.5001 31.9V31.8L14.2001 31.7C9.6001 31.5 6.1001 27.7 6.1001 23.1V1.40002H130.9C133.8 1.40002 136.2 3.80002 136.2 6.70002V38.9C136.2 41.8 133.8 44.2 130.9 44.2L30.9001 44Z" fill="white"/>
  <path d="M130.8 1.50001C133.6 1.50001 135.9 3.80001 135.9 6.60001V38.8C135.9 41.6 133.6 43.9 130.8 43.9H30.9H30.8C23.5 43.9 17.3 38.9 15.7 31.9L15.6 31.6H15.3L14.1 31.5C9.60005 31.3 6.10005 27.6 6.10005 23.1V1.50001H130.8ZM130.8 1.20001H5.80005V23.1C5.80005 27.8 9.40005 31.6 14.1 31.9L15.3 32C16.9 39 23.2 44.2 30.8 44.2H130.7C133.7 44.2 136.1 41.8 136.1 38.8V6.50001C136.2 3.60001 133.9 1.20001 130.8 1.20001Z" fill="#929497"/>
  <path d="M10.3 5.70001V23.1C10.3 25.9 12.5 28.1 15.2 28.3C15.1 20.8 20.4 14.2 27.9 12.8C28.8 12.6 29.7 12.5 30.6 12.5C38.1 12.5 44.5 17.9 45.8 25.2C46 26.2 46.1 27.2 46 28.2C48.7001 28 50.9001 25.8 50.9001 23V5.70001H10.3Z" fill="#5FC323"/>
  <path d="M25.7001 27.9C25.7001 25.1 27.9001 22.9 30.7001 22.9C33.5001 22.9 35.7001 25.1 35.7001 27.9H25.7001ZM18.8 27.9C18.8 34.4 24.1 39.7 30.6 39.7C33.8 39.7 36.7001 38.5 38.9001 36.3L36.5 33.9C34.9 35.5 32.8 36.4 30.6 36.4C26.0001 36.4 22.2001 32.7 22.2001 28C22.2001 23.4 25.9001 19.6 30.6 19.6C35.2001 19.6 39 23.3 39 28H42.3C42.3 21.5 37 16.2 30.5 16.2C24.1 16.1 18.8 21.4 18.8 27.9Z" fill="black"/>
  <path d="M60.8 27.7L58.5 20.5H59.5L60.6 24.4C60.7 24.8 60.8 25.2 60.9 25.6C61 26 61.1 26.4 61.3 26.8C61.4 26.4 61.5 26 61.6 25.6C61.7 25.2 61.8 24.8 61.9 24.4L63 20.5H63.9L61.6 27.7H60.8Z" fill="#231F20"/>
  <path d="M67 27.8C66.6 27.8 66.3 27.7 66 27.6C65.7 27.5 65.4 27.3 65.2 27.1C65 26.9 64.8 26.6 64.7 26.2C64.6 25.9 64.5 25.5 64.5 25C64.5 24.5 64.6 24.2 64.7 23.8C64.8 23.5 65 23.2 65.2 22.9C65.4 22.7 65.7 22.5 66 22.3C66.3 22.2 66.6 22.1 66.9 22.1C67.2 22.1 67.5 22.2 67.8 22.3C68.1 22.4 68.3 22.6 68.5 22.8C68.7 23 68.8 23.3 68.9 23.6C69 23.9 69 24.3 69 24.6C69 24.7 69 24.8 69 24.9C69 25 69 25.1 69 25.1H65.4C65.4 25.7 65.6 26.1 65.9 26.5C66.2 26.8 66.6 27 67.1 27C67.4 27 67.6 27 67.8 26.9C68 26.8 68.2 26.7 68.4 26.6L68.7 27.2C68.5 27.3 68.2 27.5 67.9 27.6C67.7 27.8 67.3 27.8 67 27.8ZM65.3 24.6H68.1C68.1 24.1 68 23.6 67.8 23.4C67.6 23.1 67.2 23 66.8 23C66.6 23 66.4 23 66.3 23.1C66.1 23.2 66 23.3 65.8 23.4C65.7 23.5 65.5 23.7 65.5 23.9C65.4 24.1 65.3 24.3 65.3 24.6Z" fill="#231F20"/>
  <path d="M70.2 27.7001V22.4H70.9L71 23.4C71.2 23.1 71.4 22.8 71.7 22.6C72 22.4 72.2 22.3 72.5 22.3C72.7 22.3 72.9 22.3 73.1 22.4L72.9 23.2001C72.8 23.2001 72.7 23.1 72.7 23.1C72.6 23.1 72.5 23.1 72.4 23.1C72.2 23.1 71.9 23.2 71.7 23.4C71.5 23.6 71.2 23.9 71.1 24.4V27.8H70.2V27.7001Z" fill="#231F20"/>
  <path d="M74.4999 21.3C74.2999 21.3 74.1999 21.2 74.0999 21.1C73.9999 21 73.8999 20.9 73.8999 20.7C73.8999 20.5 73.9999 20.4 74.0999 20.3C74.1999 20.2 74.3999 20.1 74.4999 20.1C74.5999 20.1 74.7999 20.2 74.8999 20.3C74.9999 20.4 75.0999 20.5 75.0999 20.7C75.0999 20.9 74.9999 21 74.8999 21.1C74.7999 21.2 74.6999 21.3 74.4999 21.3ZM73.9999 27.7V22.4H74.8999V27.7H73.9999Z" fill="#231F20"/>
  <path d="M76.9 27.7V23.1H76.2V22.4L76.9 22.3V21.5C76.9 20.9 77 20.5 77.3 20.2C77.6 19.9 77.9 19.7 78.5 19.7C78.7 19.7 78.8 19.7 79 19.7C79.1 19.7 79.3 19.8 79.4 19.8L79.2 20.5C79 20.4 78.8 20.4 78.6 20.4C78.1 20.4 77.9 20.7 77.9 21.4V22.2H79V22.9H77.9V27.5H76.9V27.7Z" fill="#231F20"/>
  <path d="M80.4 21.3C80.2 21.3 80.1 21.2 80 21.1C79.9 21 79.8 20.9 79.8 20.7C79.8 20.5 79.9 20.4 80 20.3C80.1 20.2 80.3 20.1 80.4 20.1C80.5 20.1 80.7 20.2 80.8 20.3C80.9 20.4 81 20.5 81 20.7C81 20.9 80.9 21 80.8 21.1C80.7 21.2 80.5 21.3 80.4 21.3ZM79.9 27.7V22.4H80.8V27.7H79.9Z" fill="#231F20"/>
  <path d="M84.7 27.8C84.3 27.8 84 27.7 83.7 27.6C83.4 27.5 83.1 27.3 82.9 27.1C82.7 26.9 82.5 26.6 82.4 26.2C82.3 25.9 82.2 25.5 82.2 25C82.2 24.5 82.3 24.2 82.4 23.8C82.5 23.5 82.7 23.2 82.9 22.9C83.1 22.7 83.4 22.5 83.7 22.3C84 22.2 84.3 22.1 84.6 22.1C84.9 22.1 85.2 22.2 85.5 22.3C85.8 22.4 86 22.6 86.2 22.8C86.4 23 86.5 23.3 86.6 23.6C86.7 23.9 86.7 24.3 86.7 24.6C86.7 24.7 86.7 24.8 86.7 24.9C86.7 25 86.7 25.1 86.7 25.1H83.1C83.1 25.7 83.3 26.1 83.6 26.5C83.9 26.9 84.3 27 84.8 27C85.1 27 85.3 27 85.5 26.9C85.7 26.8 85.9 26.7 86.1 26.6L86.4 27.2C86.2 27.3 85.9 27.5 85.6 27.6C85.4 27.8 85.1 27.8 84.7 27.8ZM83.1 24.6H85.9C85.9 24.1 85.8 23.6 85.6 23.4C85.4 23.1 85 23 84.6 23C84.4 23 84.2 23 84.1 23.1C83.9 23.2 83.8 23.3 83.6 23.4C83.5 23.5 83.3 23.7 83.3 23.9C83.3 24.1 83.1 24.3 83.1 24.6Z" fill="#231F20"/>
  <path d="M89.8001 27.8C89.1001 27.8 88.6001 27.6 88.2001 27.1C87.8001 26.6 87.6001 25.9 87.6001 25C87.6001 24.6 87.7001 24.2 87.8001 23.8C87.9001 23.5 88.1001 23.2 88.3001 22.9C88.5001 22.6 88.8001 22.5 89.0001 22.3C89.3001 22.2 89.6001 22.1 89.9001 22.1C90.2001 22.1 90.5001 22.2 90.7001 22.3C90.9001 22.4 91.2001 22.6 91.4001 22.8V21.9V19.8H92.3001V27.6H91.5001V27.1C91.3001 27.3 91.0001 27.5 90.8001 27.6C90.4001 27.8 90.1001 27.8 89.8001 27.8ZM90.0001 27.1C90.2001 27.1 90.5001 27 90.7001 26.9C90.9001 26.8 91.1001 26.6 91.4001 26.3V23.5C91.2001 23.3 91.0001 23.1 90.7001 23.1C90.5001 23 90.3001 23 90.1001 23C89.9001 23 89.7001 23.1 89.5001 23.1C89.3001 23.1 89.2001 23.3 89.0001 23.5C88.9001 23.7 88.8001 23.9 88.7001 24.1C88.6001 24.4 88.5001 24.7 88.5001 25C88.5001 25.6 88.6001 26.1 88.9001 26.5C89.2001 26.9 89.5001 27.1 90.0001 27.1Z" fill="#231F20"/>
  <path d="M96.3 27.7V20.5H98.3C98.7 20.5 99.1 20.5 99.4 20.6C99.7 20.7 100 20.8 100.2 21C100.4 21.2 100.6 21.4 100.7 21.7C100.8 22 100.9 22.3 100.9 22.7C100.9 23.1 100.8 23.4 100.7 23.7C100.6 24 100.4 24.2 100.2 24.4C100 24.6 99.7 24.7 99.4 24.8C99.1 24.9 98.7 24.9 98.3 24.9H97.1V27.8H96.3V27.7ZM97.2 24.1H98.3C98.9 24.1 99.4 24 99.7 23.7C100 23.5 100.2 23.1 100.2 22.6C100.2 22.1 100 21.7 99.7 21.5C99.4 21.3 98.9 21.2 98.3 21.2H97.3L97.2 24.1Z" fill="#231F20"/>
  <path d="M102.4 27.7001V22.4H103.1L103.2 23.4C103.4 23.1 103.6 22.8 103.9 22.6C104.2 22.4 104.4 22.3 104.7 22.3C104.9 22.3 105.1 22.3 105.3 22.4L105.1 23.2001C105 23.2001 104.9 23.1 104.9 23.1C104.8 23.1 104.7 23.1 104.6 23.1C104.4 23.1 104.1 23.2 103.9 23.4C103.7 23.6 103.4 23.9 103.3 24.4V27.8H102.4V27.7001Z" fill="#231F20"/>
  <path d="M106.7 21.3C106.5 21.3 106.4 21.2 106.3 21.1C106.2 21 106.1 20.9 106.1 20.7C106.1 20.5 106.2 20.4 106.3 20.3C106.4 20.2 106.6 20.1 106.7 20.1C106.8 20.1 107 20.2 107.1 20.3C107.2 20.4 107.3 20.5 107.3 20.7C107.3 20.9 107.2 21 107.1 21.1C107 21.2 106.8 21.3 106.7 21.3ZM106.2 27.7V22.4H107.1V27.7H106.2Z" fill="#231F20"/>
  <path d="M110 27.7L108.1 22.4H109L110 25.4C110.1 25.7 110.2 25.9 110.2 26.2C110.3 26.5 110.4 26.7 110.4 27C110.5 26.7 110.6 26.5 110.6 26.2C110.7 25.9 110.8 25.7 110.8 25.4L111.8 22.4H112.7L110.8 27.7H110Z" fill="#231F20"/>
  <path d="M115 27.8C114.6 27.8 114.2 27.7 113.9 27.4C113.6 27.1 113.5 26.8 113.5 26.3C113.5 25.7 113.8 25.3 114.3 25C114.8 24.7 115.6 24.5 116.8 24.3C116.8 24.1 116.8 24 116.8 23.8C116.8 23.6 116.7 23.5 116.6 23.4C116.5 23.3 116.4 23.2 116.3 23.1C116.2 23 116 23 115.8 23C115.5 23 115.2 23.1001 114.9 23.2001C114.6 23.3001 114.4 23.4 114.2 23.6L113.9 23C114.1 22.8 114.4 22.7 114.8 22.5C115.2 22.3 115.5 22.3 116 22.3C116.6 22.3 117.1 22.5 117.4 22.9C117.7 23.3 117.8 23.8 117.8 24.5V27.8H117.1L117 27.2001C116.7 27.4001 116.5 27.6001 116.2 27.7001C115.7 27.8001 115.3 27.8 115 27.8ZM115.3 27.1C115.6 27.1 115.8 27 116 26.9C116.2 26.8 116.5 26.6 116.7 26.4V24.9C116.3 25 115.9 25.0001 115.6 25.1C115.3 25.2 115.1 25.3 114.9 25.4C114.7 25.5 114.6 25.6 114.5 25.8C114.4 25.9 114.4 26.1 114.4 26.3C114.4 26.6 114.5 26.8 114.7 27C114.8 27 115 27.1 115.3 27.1Z" fill="#231F20"/>
  <path d="M121.4 27.7999C121.1 27.7999 120.7 27.7 120.4 27.6C120.1 27.5 119.8 27.3 119.6 27.1C119.4 26.9 119.2 26.6 119.1 26.2C119 25.9 118.9 25.5 118.9 25C118.9 24.6 119 24.1999 119.1 23.7999C119.2 23.4999 119.4 23.2 119.7 22.9C119.9 22.7 120.2 22.5 120.5 22.4C120.8 22.3 121.1 22.2 121.5 22.2C121.8 22.2 122.1 22.3 122.4 22.4C122.6 22.5 122.9 22.6999 123.1 22.7999L122.6 23.4C122.4 23.3 122.3 23.1 122.1 23.1C121.9 23 121.7 23 121.5 23C121.3 23 121 23 120.8 23.1C120.6 23.2 120.4 23.3 120.3 23.5C120.2 23.7 120 23.9 120 24.2C119.9 24.5 119.9 24.7 119.9 25C119.9 25.3 119.9 25.5999 120 25.7999C120.1 25.9999 120.2 26.3 120.3 26.4C120.4 26.5999 120.6 26.6999 120.8 26.7999C121 26.8999 121.2 26.9 121.5 26.9C121.7 26.9 122 26.8 122.2 26.7C122.4 26.6 122.6 26.4999 122.8 26.2999L123.2 26.9C123 27.0999 122.7 27.3 122.4 27.4C122.1 27.4999 121.7 27.7999 121.4 27.7999Z" fill="#231F20"/>
  <path d="M124.4 30C124.3 30 124.2 30 124.1 30C124 30 123.9 30 123.8 29.9L124 29.2001C124.1 29.2001 124.1 29.2001 124.2 29.2001C124.3 29.2001 124.3 29.2001 124.4 29.2001C124.7 29.2001 125 29.1 125.1 28.9C125.3 28.7 125.4 28.4001 125.6 28.1L125.7 27.7001L123.6 22.3H124.5L125.6 25.3C125.7 25.5 125.8 25.8 125.9 26C126 26.2 126.1 26.5 126.2 26.8C126.3 26.6 126.4 26.3 126.4 26C126.5 25.7 126.5 25.5 126.6 25.3L127.6 22.3H128.5L126.5 28.1C126.4 28.4001 126.3 28.6 126.2 28.8C126.1 29 125.9 29.2 125.8 29.4C125.7 29.6 125.5 29.7 125.3 29.8C124.9 30 124.7 30 124.4 30Z" fill="#231F20"/>
  <path d="M72.0001 7.70001V15.8H69.8001V7.70001H66.6001V5.70001H75.0001V7.80001L72.0001 7.70001Z" fill="black"/>
  <path d="M82.4002 15.8L80.2002 12.6H78.5002V15.8H76.2002V5.70001H80.9002C83.3002 5.70001 84.7002 6.90001 84.7002 9.00001C84.7002 10.6 83.8002 11.7 82.5002 12.2L85.0002 15.8H82.4002ZM82.4002 9.10001C82.4002 8.10001 81.7002 7.70001 80.7002 7.70001H78.5002V10.7H80.8002C81.8002 10.7 82.4002 10 82.4002 9.10001Z" fill="black"/>
  <path d="M90.6002 16C87.8002 16 86.2002 14.5 86.2002 11.5V5.70001H88.4002V11.4C88.4002 13 89.3002 13.9 90.6002 13.9C91.9002 13.9 92.8002 13 92.8002 11.4V5.70001H95.0002V11.4C95.1002 14.5 93.4002 16 90.6002 16Z" fill="black"/>
  <path d="M100.8 16C99.3 16 97.7 15.4 96.5 14.4L97.8 12.8C98.8 13.6 99.7 14 100.9 14C101.9 14 102.3 13.6 102.3 13C102.3 12.4 101.9 12.1 100.3 11.7C98.3 11.2 97 10.6 97 8.50002C97 6.70002 98.5 5.40002 100.5 5.40002C102 5.40002 103.3 5.90002 104.3 6.70002L103.2 8.50002C102.3 7.80002 101.4 7.50002 100.5 7.50002C99.6 7.50002 99.2 7.90002 99.2 8.40002C99.2 9.10002 99.7 9.30002 101.4 9.70002C103.5 10.3 104.6 10.9 104.6 12.8C104.5 14.9 103 16 100.8 16Z" fill="black"/>
  <path d="M110.1 7.70001V15.8H107.9V7.70001H104.8V5.70001H113.2V7.80001L110.1 7.70001Z" fill="black"/>
  <path d="M120.3 12.8H114.9C115.1 13.8 115.9 14.3 116.8 14.3C117.6 14.3 118 14.1 118.7 13.5L119.9 14.6C119.1 15.5 118.1 16 116.7 16C114.3 16 112.6 14.4 112.6 12C112.6 9.8 114.2 8 116.4 8C119 8 120.2 10 120.2 12.2C120.3 12.4 120.3 12.5 120.3 12.8ZM116.4 9.7C115.5 9.7 114.9 10.4 114.7 11.3H118C118 10.4 117.4 9.7 116.4 9.7Z" fill="black"/>
  <path d="M57.5 31.6H129.5" stroke="#231F20" stroke-width="0.4744" stroke-miterlimit="10"/>
  <path d="M63.7999 36.2001C63.7999 36.4001 63.8 36.6 63.7 36.8C63.6 37 63.5 37.1 63.4 37.3C63.2 37.5 62.9999 37.6001 62.7999 37.7001C62.5999 37.8001 62.3 37.8 61.9 37.8H61.2999V39.6H60.7V34.8H62C62.3 34.8 62.5 34.8001 62.7 34.9001C62.9 34.9001 63.1 35 63.2 35.1C63.4 35.2 63.4999 35.4 63.5999 35.6C63.7999 35.7 63.7999 35.9001 63.7999 36.2001ZM63.2 36.2001C63.2 36.0001 63.1999 35.9 63.0999 35.8C62.9999 35.7 62.9999 35.6 62.7999 35.5C62.6999 35.4 62.6 35.4001 62.4 35.4001C62.3 35.4001 62.1 35.4001 61.9 35.4001H61.2999V37.3H61.7999C62.0999 37.3 62.3 37.3001 62.4 37.2001C62.6 37.2001 62.6999 37.1 62.7999 37C62.8999 36.9 63 36.8001 63 36.7001C63.1 36.5001 63.2 36.3001 63.2 36.2001Z" fill="black"/>
  <path d="M67.5 37.7001C67.5 38.3001 67.4 38.7 67 39.1C66.6 39.5 66.3 39.6 65.8 39.6C65.3 39.6 64.9 39.4 64.6 39.1C64.3 38.8 64.2 38.3001 64.2 37.7001C64.2 37.1001 64.3 36.7 64.6 36.3C64.9 36 65.3 35.8 65.8 35.8C66.3 35.8 66.7 36 67 36.3C67.3 36.6 67.5 37.2001 67.5 37.7001ZM66.9 37.7001C66.9 37.2001 66.8 36.9001 66.6 36.7001C66.4 36.5001 66.2 36.4001 65.8 36.4001C65.5 36.4001 65.2 36.5001 65 36.7001C64.8 36.9001 64.7 37.3001 64.7 37.7001C64.7 38.2001 64.8 38.5001 65 38.7001C65.2 38.9001 65.4 39 65.8 39C66.1 39 66.4 38.9001 66.6 38.7001C66.8 38.5001 66.9 38.2001 66.9 37.7001Z" fill="black"/>
  <path d="M73 35.9L72.1 39.5H71.5L70.6 36.7L69.7 39.5H69.1L68.2 35.9H68.8L69.5 38.7L70.4 35.9H70.9L71.8 38.7L72.4 35.9H73Z" fill="black"/>
  <path d="M76.8999 37.8H74.2999C74.2999 38 74.2999 38.2 74.3999 38.4C74.4999 38.6 74.5999 38.7 74.6999 38.8C74.7999 38.9 74.8999 39 75.0999 39C75.2999 39.1 75.3999 39.1 75.5999 39.1C75.7999 39.1 76.0999 39.1 76.2999 39C76.4999 38.9 76.6999 38.8 76.7999 38.7V39.4C76.5999 39.5 76.3999 39.6 76.1999 39.6C75.9999 39.7 75.7999 39.7 75.4999 39.7C74.8999 39.7 74.3999 39.5 74.0999 39.2C73.7999 38.9 73.5999 38.4 73.5999 37.8C73.5999 37.2 73.7999 36.7 74.0999 36.4C74.3999 36.1 74.7999 35.9 75.3999 35.9C75.8999 35.9 76.2999 36 76.4999 36.3C76.6999 36.6 76.8999 37 76.8999 37.5V37.8ZM76.2999 37.3C76.2999 37 76.1999 36.7 76.0999 36.6C75.9999 36.5 75.6999 36.3 75.3999 36.3C75.0999 36.3 74.7999 36.4 74.5999 36.6C74.3999 36.8 74.2999 37 74.2999 37.3H76.2999Z" fill="black"/>
  <path d="M80 36.6C79.9 36.6 79.8 36.6 79.7 36.6C79.6 36.6 79.5 36.6 79.4 36.6C79.2 36.6 79 36.6 78.9 36.7C78.7 36.8 78.6 36.9 78.4 37V39.6H77.8V36H78.4V36.5C78.6 36.3 78.9 36.2 79 36.1C79.2 36 79.4 36 79.6 36C79.7 36 79.8 36 79.8 36C79.8 36 79.9 36 80 36V36.6Z" fill="black"/>
  <path d="M83.6 37.8H81C81 38 81 38.2 81.1 38.4C81.2 38.6 81.3 38.7 81.4 38.8C81.5 38.9 81.6 39 81.8 39C82 39.1 82.1 39.1 82.3 39.1C82.5 39.1 82.8 39.1 83 39C83.2 38.9 83.4 38.8 83.5 38.7V39.4C83.3 39.5 83.1 39.6 82.9 39.6C82.7 39.7 82.5 39.7 82.2 39.7C81.6 39.7 81.1 39.5 80.8 39.2C80.5 38.9 80.3 38.4 80.3 37.8C80.3 37.2 80.5 36.7 80.8 36.4C81.1 36.1 81.5 35.9 82.1 35.9C82.6 35.9 83 36 83.2 36.3C83.4 36.6 83.6 37 83.6 37.5V37.8ZM83 37.3C83 37 82.9 36.7 82.8 36.6C82.6 36.4 82.4 36.3 82.1 36.3C81.8 36.3 81.5 36.4 81.3 36.6C81.1 36.8 81 37 81 37.3H83Z" fill="black"/>
  <path d="M87.4 39.5H86.8V39.1C86.6 39.2 86.4 39.4 86.3 39.5C86.1 39.6 85.9 39.6 85.7 39.6C85.3 39.6 84.9 39.4 84.7 39.1C84.4 38.8 84.3 38.3 84.3 37.7C84.3 37.4 84.3 37.1 84.4 36.9C84.5 36.7 84.6 36.5 84.8 36.3C84.9 36.1 85.1 36 85.3 35.9C85.5 35.8 85.7 35.8 85.9 35.8C86.1 35.8 86.3 35.8 86.4 35.9C86.5 35.9 86.7 36 86.9 36.1V34.5H87.5L87.4 39.5ZM86.8 38.6V36.5C86.6 36.4 86.5 36.4 86.4 36.3C86.3 36.3 86.1 36.3 86 36.3C85.7 36.3 85.4 36.4 85.2 36.7C85 36.9 84.9 37.3 84.9 37.7C84.9 38.1 85 38.5 85.1 38.7C85.2 38.9 85.5 39 85.8 39C86 39 86.1 39 86.3 38.9C86.5 38.8 86.7 38.8 86.8 38.6Z" fill="black"/>
  <path d="M94.1 37.7C94.1 38 94.1 38.3 94 38.5C93.9 38.7 93.8 38.9 93.7 39.1C93.5 39.3 93.4 39.4 93.2 39.5C93 39.6 92.8 39.6 92.6 39.6C92.4 39.6 92.2 39.6 92.1 39.5C92 39.4 91.8 39.4 91.6 39.3V39.5H91V34.5H91.5V36.3C91.7 36.2 91.8 36 92 36C92.2 35.9 92.4 35.9 92.6 35.9C93 35.9 93.4 36.1 93.6 36.4C94 36.7 94.1 37.1 94.1 37.7ZM93.5 37.7C93.5 37.3 93.4 36.9 93.3 36.7C93.2 36.5 92.9 36.4 92.6 36.4C92.4 36.4 92.2 36.4 92.1 36.5C91.9 36.6 91.8 36.7 91.6 36.8V38.9C91.8 39 91.9 39 92 39.1C92.1 39.1 92.3 39.1 92.4 39.1C92.7 39.1 93 39 93.2 38.8C93.4 38.6 93.5 38.2 93.5 37.7Z" fill="black"/>
  <path d="M98.1 35.9L96 40.8H95.4L96.1 39.3L94.7 35.9H95.4L96.5 38.6L97.6 35.9H98.1Z" fill="black"/>
  <path d="M126.5 38.3C126.5 38.3 126.1 38.7 125.4 38.7C124.7 38.7 124.2 38.2 124.2 37.5C124.2 36.8 124.6 36.3 125.4 36.3C126 36.3 126.4 36.7 126.4 36.7L126.8 36.1C126.8 36.1 126.4 35.6 125.4 35.6C124.2 35.6 123.4 36.5 123.4 37.6C123.4 38.7 124.2 39.6 125.4 39.6C126.4 39.6 126.9 39 126.9 39L126.5 38.3Z" fill="black"/>
  <path d="M121.3 39.3001L121.2 39.5001H121.9V38.1001C121.9 37.9001 121.9 37.8001 121.9 37.7001C121.7 38.0001 121.5 38.3001 121.5 38.6001C121.4 38.9001 121.3 39.1001 121.3 39.3001Z" fill="black"/>
  <path d="M121.9 36.6V35.9H121V38.5C121.3 38.1 121.5 37.5 121.9 37.2C122.1 37 122.3 36.8 122.5 36.7C122.7 36.6 122.9 36.5 123.1 36.4V35.9C123.1 35.9 123 35.9 122.9 35.9C122.5 35.8 122 36.1 121.9 36.6Z" fill="black"/>
  <path d="M100.6 34.4V35.2H102.2V39.5H103.2V35.2H104.9V34.4H100.6Z" fill="black"/>
  <path d="M109.5 37.5C109.5 38.1 109.1 38.7001 108.4 38.7001C108 38.7001 107.9 38.4 107.9 38V35.9001H107V38.2001C107 39.2001 107.5 39.6 108.2 39.6C108.8 39.6 109.3 39.3 109.4 39V39.4001H110.3V35.8H109.4L109.5 37.5Z" fill="black"/>
  <path d="M111.8 36.9001C111.8 36.6001 112.1 36.5 112.2 36.5C112.7 36.5 113.1 36.9001 113.1 36.9001L113.5 36.2001C113.5 36.2001 113.1 35.8 112.3 35.8C111.5 35.8 110.9 36.2001 110.9 36.9001C110.9 38.1001 112.7 38 112.7 38.6C112.7 38.9 112.4 39 112.3 39C111.7 39 111.3 38.6 111.3 38.6L110.9 39.2001C110.9 39.2001 111.4 39.7001 112.3 39.7001C113.2 39.7001 113.7 39.2 113.7 38.6C113.6 37.3 111.8 37.3001 111.8 36.9001Z" fill="black"/>
  <path d="M114.8 38.1V36.7H115.6V36H114.8V34.9H114V36.7V38.2C114 39.4 115 39.6 115.5 39.6C115.7 39.6 115.8 39.6 115.8 39.6L116.1 38.8H115.7C115.3 38.8 114.8 38.7 114.8 38.1Z" fill="black"/>
  <path d="M117.8 37.4L118.2 36.1C118.3 35.8 118.5 35.3 118.5 35.3C118.5 35.3 118.6 35.8 118.7 36.1L119.1 37.4H117.8ZM118.9 34.4H117.9L116.1 39.5H117.1L117.5 38.2H119.3L119.7 39.5H120.6H120.7L120.6 39.3L118.9 34.4Z" fill="black"/>
  <path d="M105.3 36.6001V35.9001H104.4V39.5001H105.3V38.1001C105.3 37.8001 105.3 37.7001 105.4 37.5001C105.6 37.0001 106 36.7001 106.4 36.7001C106.5 36.7001 106.7 36.7001 106.7 36.7001V35.7001C106.7 35.7001 106.6 35.7001 106.5 35.7001C106 35.8001 105.5 36.1001 105.3 36.6001Z" fill="black"/>
</svg>
